<?xml version="1.0" encoding="UTF-8"?>
<svg width="512px" height="512px" viewBox="0 0 512 512" version="1.1" xmlns="http://www.w3.org/2000/svg" xmlns:xlink="http://www.w3.org/1999/xlink">
    <!-- Generator: Sketch 61 (89581) - https://sketch.com -->
    <title>logo4</title>
    <desc>Created with Sketch.</desc>
    <g id="logo4" stroke="none" stroke-width="1" fill="none" fill-rule="evenodd">
        <rect fill="#FFFFFF" x="0" y="0" width="512" height="512"></rect>
        <g id="XMLID_130_" transform="translate(76.000000, 96.000000)" fill-rule="nonzero">
            <path d="M136.397835,188.485121 C157.436778,151.114908 178.476182,113.744848 178.47649,113.744234 C178.476951,113.745001 199.205107,150.562759 220.086967,187.65337 L269,158.312937 C224.256453,78.8393663 179.875028,0.00828223547 179.870263,0 C179.866574,0.00628836397 134.750145,80.1428982 89.6337151,160.279355 C89.422528,160.654663 89.2110334,161.029817 89,161.405125 L136.108106,189 C136.204785,188.82822 136.301156,188.656747 136.397835,188.485121 Z" id="XMLID_136_" fill="#34A853"></path>
            <path d="M360,320 C358.114903,316.64992 313.302378,237.007102 268.847654,158 L220,187.318215 C241.166007,224.935536 262.490116,262.833626 262.490116,262.833626 C262.490116,262.833626 262.445448,262.833626 262.412446,262.833626 L304.945695,287.776922 L360,320 Z" id="XMLID_169_" fill="#F39C12"></path>
            <path d="M94.4282835,262.722625 C94.4282835,262.722625 115.166512,225.73017 136,188.568246 L89.1367706,161 C44.4643348,240.685711 0,320 0,320 C0,320 0.0235470564,320 0.0607024767,320 L94.4409744,262.763996 L0.0607024767,320 C0.0672773041,320 0.0831792124,320 0.0909772636,320 L94.5486181,262.722472 C94.4689556,262.722625 94.4282835,262.722625 94.4282835,262.722625 Z" id="XMLID_170_" fill="#EC1C24"></path>
            <path d="M359.983746,319.97118 L304.933762,287.817276 L262.580803,263.127934 L304.933762,287.817276 L262.444332,263 C259.223767,263 99.729392,263 94.7265765,263 L0,320 C6.03186881,320 360,320 360,320 C360,320 359.986966,319.976212 359.983746,319.97118 Z" id="XMLID_171_" fill="#3498DB"></path>
            <path d="M360,320 C359.990655,319.983307 359.978705,319.96191 359.947453,319.906823 L305,288 L360,320 Z" id="XMLID_168_" fill="#D0D2D3"></path>
        </g>
    </g>
</svg>