<?xml version="1.0" standalone="no"?>
<!DOCTYPE svg PUBLIC "-//W3C//DTD SVG 20010904//EN"
 "http://www.w3.org/TR/2001/REC-SVG-20010904/DTD/svg10.dtd">
<svg version="1.0" xmlns="http://www.w3.org/2000/svg"
 width="700.000000pt" height="700.000000pt" viewBox="0 0 700.000000 700.000000"
 preserveAspectRatio="xMidYMid meet">
<metadata>
Created by potrace 1.11, written by Peter Selinger 2001-2013
</metadata>
<g transform="translate(0.000000,700.000000) scale(0.100000,-0.100000)"
fill="#000000" stroke="none">
<path d="M0 3500 l0 -3500 3500 0 3500 0 0 3500 0 3500 -3500 0 -3500 0 0
-3500z m1252 273 c3 -609 3 -619 25 -665 30 -66 96 -133 162 -165 51 -26 66
-28 171 -28 103 0 121 3 170 26 66 32 123 86 158 154 l27 50 5 620 5 620 188
3 188 2 -3 -657 c-3 -641 -4 -659 -24 -713 -42 -111 -77 -165 -153 -240 -120
-120 -253 -178 -455 -201 -185 -21 -371 11 -521 89 -100 53 -211 165 -259 262
-65 133 -66 144 -66 838 l0 622 190 0 189 0 3 -617z m3198 462 l0 -155 -410 0
-410 0 0 -215 0 -215 380 0 380 0 0 -155 0 -155 -380 0 -380 0 0 -215 0 -215
415 0 415 0 0 -155 0 -155 -605 0 -605 0 0 895 0 895 600 0 600 0 0 -155z
m610 -215 l0 -370 385 0 385 0 0 370 0 370 188 -2 187 -3 3 -892 2 -893 -190
0 -190 0 0 370 0 370 -385 0 -385 0 0 -370 0 -370 -190 0 -190 0 0 895 0 895
190 0 190 0 0 -370z m-2175 61 c115 -52 156 -184 91 -295 -89 -152 -317 -126
-374 43 -57 167 121 326 283 252z m-12 -870 c40 -16 99 -73 118 -116 38 -83
14 -173 -61 -238 -69 -59 -175 -64 -249 -12 -49 33 -91 112 -91 169 1 77 55
161 125 192 35 15 123 18 158 5z"/>
</g>
</svg>
